<svg xmlns="http://www.w3.org/2000/svg" width="26" height="26" viewBox="0 0 26 26">
  <path id="icon-linkedin" d="M-7193,26h-16a5.006,5.006,0,0,1-5-5V5a5.006,5.006,0,0,1,5-5h16a5.006,5.006,0,0,1,5,5V21A5.006,5.006,0,0,1-7193,26Zm-5.681-13.707c.854,0,1.305.622,1.305,1.8v4.595h2.576V13.769a3.9,3.9,0,0,0-.848-2.7,2.764,2.764,0,0,0-2.12-.865,3.039,3.039,0,0,0-2.56,1.323h-.051l-.118-1.137h-2.239c.036.772.069,1.627.069,2.645v5.647h2.576V13.9a1.742,1.742,0,0,1,.1-.645A1.385,1.385,0,0,1-7198.682,12.293Zm-8.632-1.9v8.292h2.578V10.394Zm1.289-3.612a1.4,1.4,0,0,0-1.012.389,1.258,1.258,0,0,0-.344.918,1.231,1.231,0,0,0,.344.9,1.373,1.373,0,0,0,1,.391,1.3,1.3,0,0,0,1.391-1.287A1.288,1.288,0,0,0-7206.025,6.782Z" transform="translate(7214)" fill="#162843"/>
</svg>
