<svg xmlns="http://www.w3.org/2000/svg" width="28" height="97" viewBox="0 0 28 97"><defs><style>.a,.c{fill:#fff;}.b,.c{stroke:none;}</style></defs><g class="a" transform="translate(0 97) rotate(-90)"><path class="b" d="M 85.80332946777344 25.00000953674316 L 11.19666290283203 25.00000953674316 C 11.19671726226807 24.99999618530273 11.19671249389648 24.99998092651367 11.19670963287354 24.99996757507324 L 48.49999618530273 3.464048624038696 L 85.80332946777344 24.99999618530273 C 85.80327606201172 24.99998092651367 85.80327606201172 24.99999618530273 85.80326843261719 25.00000953674316 L 85.80332946777344 25.00000953674316 Z"/><path class="c" d="M 48.5000114440918 6.928106307983398 L 22.39335632324219 21.99999809265137 L 74.60665130615234 21.99999809265137 L 48.5000114440918 6.928106307983398 M 48.5 0.4640617370605469 C 49.01792526245117 0.4640617370605469 49.53585433959961 0.5980243682861328 49.99994659423828 0.8659477233886719 L 87.30326080322266 22.40189743041992 C 89.96142578125 23.93649864196777 88.87266540527344 27.99999809265137 85.80332946777344 27.99999809265137 L 11.19666290283203 27.99999809265137 C 8.127311706542969 27.99999809265137 7.038566589355469 23.93649864196777 9.696731567382812 22.40189743041992 L 47.00006103515625 0.8659477233886719 C 47.46414566040039 0.5980243682861328 47.98207092285156 0.4640617370605469 48.5 0.4640617370605469 Z"/></g></svg>